<svg xmlns="http://www.w3.org/2000/svg" width="480.094" height="168.906" viewBox="0 0 480.094 168.906">
  <defs>
    <style>
      .cls-1 {
        fill-rule: evenodd;
      }
    </style>
  </defs>
  <path id="Logo." class="cls-1" d="M94.114,154.663V124.85H50.541V28.178h-38.1V154.663H94.114ZM200.886,84.452A43.027,43.027,0,0,0,182.8,68.046q-11.775-5.908-27.829-5.91-15.525,0-27.431,5.645A41.868,41.868,0,0,0,109.2,84.011q-6.44,10.584-6.439,24.962,0,22.406,13.716,35.149T154.8,156.868q24.785,0,38.589-13.054t13.8-35.9A44.689,44.689,0,0,0,200.886,84.452Zm-45.734,44.9q-14.289,0-14.29-20.375,0-19.317,14.113-19.317t14.113,18.435q0,21.258-13.936,21.257h0ZM319.124,64.342h-37.4v9.35h-0.353Q273.7,62.137,258.086,62.137a37.83,37.83,0,0,0-20.816,6.042,40.326,40.326,0,0,0-14.73,17.244q-5.292,11.2-5.292,25.844,0,21.348,10.143,33.474T255,156.868a32.415,32.415,0,0,0,15.215-3.7,29.191,29.191,0,0,0,11.158-9.878h0.353v5.556a19.663,19.663,0,0,1-7.586,16.142q-7.587,6.085-20.2,6.086a50.911,50.911,0,0,1-13.5-2.117,50.389,50.389,0,0,1-13.23-5.645v29.46q3.44,1.675,11.378,3A99.658,99.658,0,0,0,255,197.089q31.4,0,47.763-14.509t16.362-40.53V64.342Zm-36.782,45.689q0,8.822-3.66,14.069a11.651,11.651,0,0,1-10.1,5.248q-6.881,0-10.056-5.116t-3.175-13.848q0-9.436,3.793-15.083a11.676,11.676,0,0,1,10.143-5.645,11.347,11.347,0,0,1,9.482,4.675q3.573,4.676,3.572,12.613v3.087ZM431.364,84.452a43.027,43.027,0,0,0-18.082-16.406q-11.775-5.908-27.829-5.91-15.525,0-27.431,5.645a41.868,41.868,0,0,0-18.347,16.23q-6.44,10.584-6.439,24.962,0,22.406,13.716,35.149t38.325,12.746q24.785,0,38.589-13.054t13.8-35.9A44.689,44.689,0,0,0,431.364,84.452Zm-45.734,44.9q-14.289,0-14.289-20.375,0-19.317,14.112-19.317t14.113,18.435q0,21.258-13.936,21.257h0Zm101.126-2.955q-5.778-4.806-15.127-4.807-9.615,0-15.3,4.807a15.67,15.67,0,0,0-5.69,12.57,16.412,16.412,0,0,0,5.778,12.745q5.776,5.16,14.862,5.16,9.967,0,15.612-4.939a16.4,16.4,0,0,0,5.646-12.966A15.573,15.573,0,0,0,486.756,126.393Z" transform="translate(-12.438 -28.188)"/>
</svg>
